<svg xmlns="http://www.w3.org/2000/svg" viewBox="0 0 496 496">
    <path d="M0 408c0 22.056 17.944 40 40 40h64v32H72v16h224v-16h-32v-32h64c22.056 0 40-17.944 40-40v-24H0v24zm248 72H120v-32h128v32zM16 400h336v8c0 13.232-10.768 24-24 24H40c-13.232 0-24-10.768-24-24v-8zm336-48h16v16h-16zM16 208c0-13.232 10.768-24 24-24h88v-16H40c-22.056 0-40 17.944-40 40v160h16V208zM144 0v80h352V0H144zm336 64H160V16h320v48z"/>
    <path d="M176 32h16v16h-16zm32 0h16v16h-16zm32 0h16v16h-16zm240 288H160V96h-16v240h352V96h-16z"/>
    <path d="M266.344 114.344L188.688 192l77.656 77.656 11.312-11.312L211.312 192l66.344-66.344zm107.312 155.312L451.312 192l-77.656-77.656-11.312 11.312L428.688 192l-66.344 66.344zm-85.345.069l47.991-159.993 15.324 4.597-47.991 159.993z"/>
</svg>
