<svg xmlns="http://www.w3.org/2000/svg" viewBox="0 0 496 496">
    <path d="M0 0v368h32v48h16v-48h96v48h16v-48h80v16h16v-16h115.2l28.8 37.032L428.8 368H496V0H0zm400 378.968l-43.728-56.216A20.412 20.412 0 0 1 352 310.296v-2.008c0-11.184 9.104-20.288 20.288-20.288a20.158 20.158 0 0 1 14.344 5.944L400 307.312l13.368-13.368A20.158 20.158 0 0 1 427.712 288c11.184 0 20.288 9.104 20.288 20.288v2.008c0 4.488-1.52 8.912-4.272 12.456L400 378.968zM480 64h-24v16h24v272h-38.752l15.112-19.432a36.454 36.454 0 0 0 7.64-22.272v-2.008C464 288.28 447.72 272 427.712 272c-9.688 0-18.808 3.776-25.656 10.632L400 284.688l-2.056-2.056C391.088 275.776 381.976 272 372.288 272 352.28 272 336 288.28 336 308.288v2.008a36.454 36.454 0 0 0 7.64 22.272L358.752 352H256v-48h-16v48h-80v-48h-16v48H48v-48H32v48H16V80h424V64H16V16h464v48z"/>
    <path d="M32 32h16v16H32zm32 0h16v16H64zm32 0h16v16H96zm27.712 184c-9.688 0-18.808 3.776-25.656 10.632L96 228.688l-2.056-2.056C87.088 219.776 77.976 216 68.288 216 48.28 216 32 232.28 32 252.288v2.008a36.454 36.454 0 0 0 7.64 22.272L96 349.032l56.36-72.464a36.454 36.454 0 0 0 7.64-22.272v-2.008C160 232.28 143.72 216 123.712 216zM144 254.296c0 4.488-1.52 8.912-4.272 12.456L96 322.968l-43.728-56.216A20.412 20.412 0 0 1 48 254.296v-2.008C48 241.104 57.104 232 68.288 232a20.158 20.158 0 0 1 14.344 5.944L96 251.312l13.368-13.368A20.158 20.158 0 0 1 123.712 232c11.184 0 20.288 9.104 20.288 20.288v2.008zm168-64v-2.008C312 168.28 295.72 152 275.712 152c-9.688 0-18.808 3.776-25.656 10.632L248 164.688l-2.056-2.056C239.088 155.776 229.976 152 220.288 152 200.28 152 184 168.28 184 188.288v2.008a36.454 36.454 0 0 0 7.64 22.272L248 285.032l56.36-72.464a36.454 36.454 0 0 0 7.64-22.272zm-16 0c0 4.488-1.52 8.912-4.272 12.456L248 258.968l-43.728-56.216A20.412 20.412 0 0 1 200 190.296v-2.008c0-11.184 9.104-20.288 20.288-20.288a20.158 20.158 0 0 1 14.344 5.944L248 187.312l13.368-13.368A20.158 20.158 0 0 1 275.712 168c11.184 0 20.288 9.104 20.288 20.288v2.008zM176 232h16v104h-16zm0 152h16v16h-16zm0 32h16v48h-16zm128-184h16v104h-16zm0 152h16v32h-16zm0 48h16v32h-16zm-272 0h16v16H32zm416-48h16v48h-16zm0 64h16v32h-16zm-112-64h16v48h-16zm0 64h16v32h-16zM88 384h16v80H88zm304 32h16v80h-16zM88 480h16v16H88zm152-80h16v16h-16zm-96 32h16v16h-16z"/>
</svg>
